<mxfile host="multicloud-diagrams" agent="PIP package multicloud-diagrams. Generate resources in draw.io compatible format for Cloud infrastructure. Copyrights @ Roman Tsypuk 2023. MIT license." type="MultiCloud">
	<diagram id="diagram_1" name="AWS components">
		<mxGraphModel dx="1015" dy="661" grid="1" gridSize="10" guides="1" tooltips="1" connect="1" arrows="1" fold="1" page="1" pageScale="1" pageWidth="850" pageHeight="1100" math="0" shadow="1">
			<root>
				<mxCell id="0"/>
				<mxCell id="1" parent="0"/>
				<mxCell id="vertex:bedrock:arn:aws:bedrock:us-west-1:123456789012:bedrock/123" value="&lt;b&gt;Name&lt;/b&gt;: Registry for images&lt;BR&gt;&lt;b&gt;ARN&lt;/b&gt;: arn:aws:bedrock:us-west-1:123456789012:bedrock/123&lt;BR&gt;-----------&lt;BR&gt;&lt;b&gt;modelArn&lt;/b&gt;: ARN&lt;BR&gt;&lt;b&gt;modelName&lt;/b&gt;: titanic&lt;BR&gt;&lt;b&gt;jobName&lt;/b&gt;: calculate survivors&lt;BR&gt;&lt;b&gt;jobArn&lt;/b&gt;: ARN&lt;BR&gt;&lt;b&gt;baseModelArn&lt;/b&gt;: ARN&lt;BR&gt;&lt;b&gt;customizationType&lt;/b&gt;: CONTINUED_PRE_TRAINING&lt;BR&gt;&lt;b&gt;modelKmsKeyArn&lt;/b&gt;: ARN&lt;BR&gt;&lt;b&gt;hyperParameters&lt;/b&gt;: {'K1': 'V1'}&lt;BR&gt;&lt;b&gt;trainingDataConfig&lt;/b&gt;: {'s3Uri': 'URI'}" style="sketch=0;outlineConnect=0;fontColor=#232F3E;fillColor=#01A88D;strokeColor=#ffffff;dashed=0;verticalLabelPosition=bottom;verticalAlign=top;align=left;html=1;fontSize=12;fontStyle=0;aspect=fixed;shape=mxgraph.aws4.resourceIcon;resIcon=mxgraph.aws4.bedrock;" parent="1" vertex="1">
					<mxGeometry width="78" height="78" as="geometry"/>
				</mxCell>
			</root>
		</mxGraphModel>
	</diagram>
</mxfile>